<?xml version="1.0" encoding="UTF-8"?>
<svg xmlns="http://www.w3.org/2000/svg" xmlns:inkscape="http://www.inkscape.org/namespaces/inkscape" width="200" height="150" viewBox="0 0 200 150">
  <g transform="translate(0,150) scale(1,-1)">
  <g inkscape:label="outline" data-layer="outline">
    <line x1="10" y1="10" x2="100" y2="10" stroke="#000000" stroke-width="0.5" fill="none" data-handle="0x10"/>
    <path d="M 10 10 L 100 10 L 100 60 L 10 60 L 10 10 Z" stroke="#000000" stroke-width="0.5" fill="none" data-handle="0x11"/>
  </g>
  <path d="M 110 10 L 190 10 L 190 60 L 110 60 Z" stroke="#000000" fill="none" stroke-width="0.5" data-role="title-block-frame"/>
  <text x="154" y="44" font-family="Arial, sans-serif" font-size="12.5" fill="#000000" transform="translate(154,44) scale(1,-1) translate(-154,-44)" data-role="title-block-label">Drawing</text>
  <text x="186" y="44" font-family="Arial, sans-serif" font-size="12.5" text-anchor="end" fill="#000000" transform="translate(186,44) scale(1,-1) translate(-186,-44)" data-role="title-block-value">TEST-001</text>
  <text x="154" y="24" font-family="Arial, sans-serif" font-size="12.5" fill="#000000" transform="translate(154,24) scale(1,-1) translate(-154,-24)" data-role="title-block-label">Rev</text>
  <text x="186" y="24" font-family="Arial, sans-serif" font-size="12.5" text-anchor="end" fill="#000000" transform="translate(186,24) scale(1,-1) translate(-186,-24)" data-role="title-block-value">A</text>
  </g>
</svg>
